<?xml version="1.0" encoding="UTF-8" standalone="no"?>
<!DOCTYPE svg PUBLIC "-//W3C//DTD SVG 1.1//EN"
 "http://www.w3.org/Graphics/SVG/1.1/DTD/svg11.dtd">
<!-- Generated by graphviz version 12.2.1 (20241206.2353)
 -->
<!-- Title: DependencyGraph Pages: 1 -->
<svg width="433pt" height="98pt"
 viewBox="0.00 0.00 433.17 98.00" xmlns="http://www.w3.org/2000/svg" xmlns:xlink="http://www.w3.org/1999/xlink">
<g id="graph0" class="graph" transform="scale(1 1) rotate(0) translate(4 94)">
<title>DependencyGraph</title>
<polygon fill="white" stroke="none" points="-4,4 -4,-94 429.17,-94 429.17,4 -4,4"/>
<!-- main_cpp -->
<g id="node1" class="node">
<title>main_cpp</title>
<polygon fill="#e0e5e8" stroke="black" points="64.75,-90 0,-90 0,-54 64.75,-54 64.75,-90"/>
<text text-anchor="middle" x="32.38" y="-66.97" font-family="Helvetica,sans-Serif" font-size="12.00">main.cpp</text>
</g>
<!-- Node_h -->
<g id="node2" class="node">
<title>Node_h</title>
<polygon fill="#e0e5e8" stroke="black" points="280.34,-90 225.34,-90 225.34,-54 280.34,-54 280.34,-90"/>
<text text-anchor="middle" x="252.84" y="-66.97" font-family="Helvetica,sans-Serif" font-size="12.00">Node.h</text>
</g>
<!-- main_cpp&#45;&gt;Node_h -->
<g id="edge1" class="edge">
<title>main_cpp&#45;&gt;Node_h</title>
<path fill="none" stroke="black" d="M65.23,-74.28C76.45,-74.98 89.15,-75.66 100.75,-76 130.85,-76.89 138.4,-76.72 168.5,-76 183.32,-75.64 199.61,-74.93 213.83,-74.21"/>
<polygon fill="black" stroke="black" points="213.89,-77.71 223.69,-73.68 213.52,-70.72 213.89,-77.71"/>
</g>
<!-- Node_cpp -->
<g id="node3" class="node">
<title>Node_cpp</title>
<polygon fill="#e0e5e8" stroke="black" points="168.5,-67 100.75,-67 100.75,-31 168.5,-31 168.5,-67"/>
<text text-anchor="middle" x="134.62" y="-43.98" font-family="Helvetica,sans-Serif" font-size="12.00">Node.cpp</text>
</g>
<!-- main_cpp&#45;&gt;Node_cpp -->
<g id="edge2" class="edge">
<title>main_cpp&#45;&gt;Node_cpp</title>
<path fill="none" stroke="black" d="M65.09,-64.72C72.82,-62.95 81.23,-61.02 89.43,-59.14"/>
<polygon fill="black" stroke="black" points="89.94,-62.61 98.91,-56.97 88.38,-55.79 89.94,-62.61"/>
</g>
<!-- Transaction_h -->
<g id="node4" class="node">
<title>Transaction_h</title>
<polygon fill="#e0e5e8" stroke="black" points="425.17,-90 337.17,-90 337.17,-54 425.17,-54 425.17,-90"/>
<text text-anchor="middle" x="381.17" y="-66.97" font-family="Helvetica,sans-Serif" font-size="12.00">Transaction.h</text>
</g>
<!-- Node_h&#45;&gt;Transaction_h -->
<g id="edge3" class="edge">
<title>Node_h&#45;&gt;Transaction_h</title>
<path fill="none" stroke="black" d="M280.63,-72C293.8,-72 310.18,-72 325.82,-72"/>
<polygon fill="black" stroke="black" points="325.5,-75.5 335.5,-72 325.5,-68.5 325.5,-75.5"/>
</g>
<!-- Block_h -->
<g id="node5" class="node">
<title>Block_h</title>
<polygon fill="#e0e5e8" stroke="black" points="409.05,-36 353.3,-36 353.3,0 409.05,0 409.05,-36"/>
<text text-anchor="middle" x="381.17" y="-12.97" font-family="Helvetica,sans-Serif" font-size="12.00">Block.h</text>
</g>
<!-- Node_h&#45;&gt;Block_h -->
<g id="edge4" class="edge">
<title>Node_h&#45;&gt;Block_h</title>
<path fill="none" stroke="black" d="M280.63,-60.55C298.6,-52.87 322.52,-42.64 342.41,-34.14"/>
<polygon fill="black" stroke="black" points="343.77,-37.37 351.59,-30.22 341.02,-30.93 343.77,-37.37"/>
</g>
<!-- Node_cpp&#45;&gt;Node_h -->
<g id="edge5" class="edge">
<title>Node_cpp&#45;&gt;Node_h</title>
<path fill="none" stroke="black" d="M168.93,-55.59C183,-58.38 199.47,-61.64 214.01,-64.51"/>
<polygon fill="black" stroke="black" points="213.19,-67.92 223.68,-66.43 214.55,-61.05 213.19,-67.92"/>
</g>
<!-- Node_Class -->
<g id="node6" class="node">
<title>Node_Class</title>
<ellipse fill="#d1e8e2" stroke="black" cx="252.84" cy="-18" rx="48.34" ry="18"/>
<text text-anchor="middle" x="252.84" y="-12.97" font-family="Helvetica,sans-Serif" font-size="12.00">Node Class</text>
</g>
<!-- Node_Class&#45;&gt;Transaction_h -->
<g id="edge6" class="edge">
<title>Node_Class&#45;&gt;Transaction_h</title>
<path fill="none" stroke="black" d="M285.72,-31.63C298.18,-36.95 312.82,-43.21 326.81,-49.19"/>
<polygon fill="black" stroke="black" points="325.36,-52.38 335.93,-53.09 328.11,-45.94 325.36,-52.38"/>
</g>
<!-- Node_Class&#45;&gt;Block_h -->
<g id="edge7" class="edge">
<title>Node_Class&#45;&gt;Block_h</title>
<path fill="none" stroke="black" d="M301.6,-18C314.73,-18 328.81,-18 341.37,-18"/>
<polygon fill="black" stroke="black" points="341.35,-21.5 351.35,-18 341.35,-14.5 341.35,-21.5"/>
</g>
</g>
</svg>
